<?xml version="1.0" standalone="no"?>
<!DOCTYPE svg PUBLIC "-//W3C//DTD SVG 20010904//EN"
 "http://www.w3.org/TR/2001/REC-SVG-20010904/DTD/svg10.dtd">
<svg version="1.0" xmlns="http://www.w3.org/2000/svg"
 width="700.000000pt" height="700.000000pt" viewBox="0 0 700.000000 700.000000"
 preserveAspectRatio="xMidYMid meet">
<metadata>
Created by potrace 1.14, written by Peter Selinger 2001-2017
</metadata>
<g transform="translate(0.000000,700.000000) scale(0.100000,-0.100000)"
fill="#000000" stroke="none">
<path d="M3217 6990 c-851 -77 -1602 -424 -2192 -1015 -768 -768 -1135 -1842
-996 -2917 195 -1502 1328 -2702 2821 -2987 305 -58 739 -74 1040 -38 1036
125 1945 682 2515 1542 309 467 493 969 561 1535 25 200 25 590 0 790 -111
914 -536 1701 -1240 2294 -490 412 -1123 689 -1777 776 -176 24 -572 34 -732
20z m32 -1510 c398 -81 803 -281 1213 -600 112 -87 574 -551 674 -675 245
-308 364 -603 364 -900 0 -182 -38 -324 -137 -516 -224 -435 -748 -823 -1368
-1014 -66 -20 -166 -54 -222 -76 -237 -90 -405 -136 -598 -164 -110 -16 -349
-22 -421 -10 -160 26 -299 80 -390 152 -202 161 -330 531 -375 1083 -15 188
-15 726 0 950 38 558 125 911 281 1141 22 32 57 106 80 165 55 147 112 245
190 323 91 93 183 138 325 162 76 12 274 2 384 -21z"/>
<path d="M2850 5356 c-122 -26 -218 -101 -292 -227 -21 -34 -36 -64 -35 -66 2
-1 25 4 52 13 28 8 91 17 140 21 79 5 94 9 122 34 155 134 437 159 783 69 41
-10 76 -18 78 -16 2 2 -32 18 -75 36 -298 125 -590 176 -773 136z"/>
<path d="M3165 5113 c-58 -7 -137 -25 -132 -29 2 -3 56 -18 120 -34 354 -89
750 -294 1097 -568 131 -103 381 -356 473 -479 97 -131 178 -268 229 -390 43
-104 88 -266 88 -319 0 -53 17 -49 34 8 95 336 -4 703 -289 1061 -119 150
-488 405 -797 551 -309 146 -630 224 -823 199z"/>
<path d="M2614 4941 c-111 -31 -167 -79 -189 -162 -25 -95 -65 -349 -80 -519
-22 -232 -30 -802 -16 -1020 22 -324 68 -576 138 -755 37 -94 62 -135 48 -80
-20 83 -45 235 -62 365 -15 121 -18 221 -18 610 0 462 6 579 41 850 33 254 96
493 170 648 20 40 34 75 32 77 -2 1 -30 -5 -64 -14z"/>
<path d="M2832 4918 c-118 -172 -192 -452 -238 -900 -21 -211 -30 -846 -15
-1059 26 -361 99 -697 176 -815 33 -51 255 -91 440 -80 573 34 1245 356 1606
770 96 109 104 137 103 326 -1 110 -6 153 -27 231 -45 172 -115 313 -247 502
-86 123 -369 406 -520 519 -348 262 -758 461 -1087 527 -147 30 -156 29 -191
-21z"/>
<path d="M2181 4163 c-49 -326 -65 -616 -58 -1055 5 -375 13 -473 52 -688 102
-564 288 -758 730 -762 127 -1 265 10 265 21 0 3 -36 14 -80 24 -162 37 -319
143 -400 270 -20 31 -49 63 -69 73 -19 11 -60 44 -91 74 -168 166 -273 458
-326 910 -21 178 -30 783 -15 1024 6 99 9 181 7 183 -2 2 -9 -31 -15 -74z"/>
<path d="M5235 3765 c3 -16 8 -91 11 -165 7 -152 -8 -257 -53 -383 -32 -91
-95 -215 -143 -287 -20 -30 -45 -80 -55 -110 -55 -169 -184 -375 -338 -536
-56 -59 -95 -104 -87 -99 125 72 283 196 400 314 355 357 467 739 333 1130
-31 92 -77 183 -68 136z"/>
<path d="M4575 2439 c-433 -327 -1133 -556 -1560 -512 -55 6 -102 10 -103 8
-2 -2 20 -17 50 -34 61 -36 153 -66 241 -81 131 -21 390 -6 544 31 162 40 517
254 701 424 82 74 223 226 211 225 -2 -1 -40 -28 -84 -61z"/>
</g>
</svg>
