<?xml version="1.0" encoding="utf-8"?>
<!-- Generator: Adobe Illustrator 23.1.1, SVG Export Plug-In . SVG Version: 6.00 Build 0)  -->
<svg version="1.1" id="Livello_1" xmlns="http://www.w3.org/2000/svg" x="0px" y="0px"
	 viewBox="0 0 1024 1024" style="enable-background:new 0 0 1024 1024;" xml:space="preserve">
<style type="text/css">
	.st0{fill:#FFFFFF;}
	.st1{fill:#ED6D54;}
</style>
<rect x="-32" y="-34.8" class="st0" width="1079.3" height="1079.3"/>
<path class="st1" d="M681.6,356.3c-30.1-35.1-67.4-65.9-104.4-89.7c-93.2-59.9-190.1-82.1-235.6-54.1c-22,13.6-38.7,39.9-50.3,80.4
	c-34.1,38.3-51.1,119.4-52.9,251.4c-1.9,136.8,18.5,223,60.7,256.2c19.5,15.3,48.4,22.9,82.8,22.9c39.4,0,86-10,134-29.7
	c3.6-1.5,7-3,10.5-4.5c19.9-4.9,40.5-11.5,61.5-20.1c133-54.7,188.8-141.5,196.6-204.4C794.1,487.6,744.8,413,681.6,356.3z
	 M375.5,770.3c-6.9-5.4-13.1-12.5-18.8-21c16.3,6.1,35.8,9.1,57.5,9.1c39.4,0,86-10,134-29.7C615.7,701,663.2,665,694.8,628
	c-21.4,52.5-74.1,112.2-171.2,154.7C460.6,798,405.7,794.1,375.5,770.3z M545.5,722.1c-78.1,32.1-151.8,37.9-195.1,16.7
	c-23.2-43.1-34.3-116.4-32.8-219c1.8-129.1,18.7-210.4,51.5-247.1c47.6,2.4,110.4,25.3,172.1,64.9
	c87.6,56.3,176.7,151.7,164.4,250.8c-0.8,6.3-2.1,12.8-3.9,19.6C671.4,649.4,621.3,691,545.5,722.1z M313.1,283.6
	c12-7.4,28-10.9,46.6-11c-31.7,39.9-47.6,119.9-49.4,247.2c-1.4,96.2,8.4,167.2,28.9,212.6c-1.2-0.8-2.4-1.5-3.5-2.4
	c-40.4-31.8-59.9-116.1-58-250.5c1.1-78.5,7.8-139.3,20.2-183.2C302.7,291.1,307.8,286.9,313.1,283.6z M544.9,331.6
	c-59.9-38.5-121.2-61.3-169.5-65.3c3.1-2.7,6.3-5.2,9.6-7.2c12.2-7.5,28.5-11.2,47.7-11.2c48.4,0,115.1,23.3,180.3,65.2
	c21.6,13.9,43.4,30.2,63.6,48.3c41.1,48.1,68.3,104.4,61.1,162c-2.6,20.9-10.8,44.6-25.6,68.9c0.1-1,0.3-2,0.4-3
	C725.3,486.9,634.3,389.1,544.9,331.6z M345.4,218.6c12.2-7.5,28.5-11.2,47.7-11.2c48.4,0,115.1,23.3,180.3,65.2
	c21,13.5,42.1,29.2,61.8,46.7c-6.1-4.3-12.2-8.4-18.3-12.3C523.7,247.2,426.8,225,381.3,253c-5.5,3.4-10.7,7.6-15.5,12.7
	c-22.7-0.7-42.1,3.1-56.4,11.9c-2.4,1.5-4.8,3.2-7.1,5C313.1,251,327.4,229.7,345.4,218.6z M303.5,794.9
	c-40.4-31.8-59.9-116.1-58-250.5c1.6-114.6,15.1-191.4,41.1-233c-9.7,42.5-14.9,98.1-15.9,167.9c-1.9,136.8,18.5,223,60.7,256.2
	c4.2,3.3,8.9,6.2,13.9,8.8c7.4,13.3,16,24,25.7,31.7c19.5,15.3,48.4,22.9,82.8,22.9c10.9,0,22.5-0.8,34.4-2.4
	C410.3,823.3,339.5,823.2,303.5,794.9z M777.4,563.9c-7.6,60.9-62.1,145.2-192.3,198.7c-6.7,2.7-13.3,5.2-19.9,7.6
	c85.3-47,128.7-108.1,142.9-159.1c21.9-30.4,33.4-60.6,36.7-86.7c5.6-44.8-8.7-88.8-34.1-128.9C755,445,784.9,503.7,777.4,563.9z"/>
</svg>
