<svg width="20" height="21" viewBox="0 0 20 21" fill="none" xmlns="http://www.w3.org/2000/svg">
<g id="Actions/24">
<path id="Vector (Stroke)" fill-rule="evenodd" clip-rule="evenodd" d="M8.78334 4.47292C8.09697 4.61057 7.43617 4.865 6.83065 5.22799C5.8758 5.80038 5.09424 6.62124 4.56934 7.60299C4.04444 8.58474 3.79588 9.69057 3.85018 10.8025C3.90447 11.9145 4.25959 12.9908 4.87766 13.9167C5.49572 14.8427 6.35354 15.5835 7.35961 16.0601C8.36568 16.5368 9.48227 16.7314 10.5903 16.6232C11.6983 16.5149 12.7561 16.108 13.651 15.4457C14.1459 15.0794 14.5807 14.6426 14.9428 14.1514C14.0343 14.265 13.1053 14.1815 12.2209 13.8985C10.8074 13.4462 9.59714 12.513 8.8004 11.2609C8.00367 10.0089 7.67086 8.51723 7.85983 7.04526C7.97805 6.1244 8.2958 5.24767 8.78334 4.47292ZM10.0806 3.02559C10.051 3.02157 10.021 3.01952 9.99075 3.01953C8.63612 3.01986 7.30697 3.3879 6.14511 4.08439C4.98324 4.78089 4.03223 5.77972 3.39352 6.97433C2.75481 8.16894 2.45236 9.51452 2.51843 10.8675C2.5845 12.2206 3.01662 13.5303 3.76868 14.657C4.52075 15.7837 5.56455 16.6851 6.78875 17.2651C8.01295 17.845 9.37163 18.0818 10.7199 17.9502C12.0681 17.8185 13.3553 17.3233 14.4441 16.5175C15.533 15.7116 16.3827 14.6253 16.9026 13.3744C17.0057 13.1262 16.9497 12.8402 16.7605 12.6493C16.5713 12.4583 16.2859 12.3997 16.0368 12.5006C14.9502 12.9406 13.7437 12.9859 12.6272 12.6286C11.5107 12.2713 10.5547 11.5341 9.92529 10.5451C9.29593 9.55608 9.03303 8.37778 9.18231 7.21504C9.33158 6.05229 9.88358 4.97861 10.7424 4.18063C10.9432 3.99405 11.0093 3.70359 10.9091 3.44847C10.8088 3.19336 10.5627 3.02559 10.2886 3.02559H10.0806Z" fill="#25282D"/>
<path id="Vector" d="M13.7643 3.97559C13.7643 4.37732 13.9238 4.7626 14.2079 5.04667C14.492 5.33075 14.8773 5.49033 15.279 5.49033C14.8773 5.49033 14.492 5.64992 14.2079 5.93399C13.9238 6.21806 13.7643 6.60335 13.7643 7.00508C13.7643 6.60335 13.6047 6.21806 13.3206 5.93399C13.0365 5.64992 12.6512 5.49033 12.2495 5.49033C12.6512 5.49033 13.0365 5.33075 13.3206 5.04667C13.6047 4.7626 13.7643 4.37732 13.7643 3.97559Z" fill="#25282D"/>
<path id="Vector (Stroke)_2" fill-rule="evenodd" clip-rule="evenodd" d="M13.7642 3.43359C14.0633 3.43359 14.3058 3.67611 14.3058 3.97526C14.3058 4.23334 14.4084 4.48084 14.5909 4.66333C14.7733 4.84582 15.0208 4.94834 15.2789 4.94834C15.5781 4.94834 15.8206 5.19085 15.8206 5.49001C15.8206 5.78916 15.5781 6.03168 15.2789 6.03168C15.0208 6.03168 14.7733 6.1342 14.5909 6.31668C14.4084 6.49917 14.3058 6.74668 14.3058 7.00476C14.3058 7.30391 14.0633 7.54642 13.7642 7.54642C13.465 7.54642 13.2225 7.30391 13.2225 7.00476C13.2225 6.74668 13.12 6.49917 12.9375 6.31668C12.755 6.1342 12.5075 6.03168 12.2494 6.03168C11.9503 6.03168 11.7078 5.78916 11.7078 5.49001C11.7078 5.19085 11.9503 4.94834 12.2494 4.94834C12.5075 4.94834 12.755 4.84582 12.9375 4.66333C13.12 4.48084 13.2225 4.23334 13.2225 3.97526C13.2225 3.67611 13.465 3.43359 13.7642 3.43359ZM13.7642 5.36608C13.7445 5.38756 13.7242 5.40866 13.7035 5.42937C13.6828 5.45007 13.6617 5.47029 13.6403 5.49001C13.6617 5.50973 13.6828 5.52995 13.7035 5.55065C13.7242 5.57136 13.7445 5.59246 13.7642 5.61393C13.7839 5.59246 13.8041 5.57136 13.8248 5.55065C13.8455 5.52995 13.8666 5.50973 13.8881 5.49001C13.8666 5.47029 13.8455 5.45007 13.8248 5.42937C13.8041 5.40866 13.7839 5.38756 13.7642 5.36608Z" fill="#25282D"/>
<path id="Vector (Stroke)_3" fill-rule="evenodd" clip-rule="evenodd" d="M16.6667 8.44336C16.9659 8.44336 17.2084 8.68587 17.2084 8.98503V9.20073H17.4241C17.7232 9.20073 17.9658 9.44325 17.9658 9.7424C17.9658 10.0416 17.7232 10.2841 17.4241 10.2841H17.2084V10.4998C17.2084 10.7989 16.9659 11.0414 16.6667 11.0414C16.3676 11.0414 16.1251 10.7989 16.1251 10.4998V10.2841H15.9093C15.6102 10.2841 15.3677 10.0416 15.3677 9.7424C15.3677 9.44325 15.6102 9.20073 15.9093 9.20073H16.1251V8.98503C16.1251 8.68587 16.3676 8.44336 16.6667 8.44336Z" fill="#25282D"/>
</g>
</svg>
