<svg id="Livello_1" data-name="Livello 1" xmlns="http://www.w3.org/2000/svg" viewBox="0 0 294.23 85.79"><path d="M126.3,79.9V46.5h12.1a18.13,18.13,0,0,1,7.2,1.3,13.91,13.91,0,0,1,5.1,3.6,14.84,14.84,0,0,1,3.1,5.3,19.67,19.67,0,0,1,1,6.5,19.14,19.14,0,0,1-1.2,6.9,15.87,15.87,0,0,1-3.3,5.3,14.31,14.31,0,0,1-5.2,3.4,18.37,18.37,0,0,1-6.8,1.2h-12Zm22.1-16.7a12.19,12.19,0,0,0-.7-4.4,10.74,10.74,0,0,0-1.9-3.5,8.91,8.91,0,0,0-3.1-2.3,11,11,0,0,0-4.2-.8h-5.6v22h5.6a11.92,11.92,0,0,0,4.3-.8,8.91,8.91,0,0,0,3.1-2.3,10.74,10.74,0,0,0,1.9-3.5,16.33,16.33,0,0,0,.6-4.4Z" transform="translate(-25.98 -20.21)" fill="#dc735b"/><path d="M182.9,74.2v5.7H159.7V46.5h22.8v5.7H166.2v8h14v5.3h-14v8.7Z" transform="translate(-25.98 -20.21)" fill="#dc735b"/><path d="M210,55.3a9.63,9.63,0,0,0-1.2-.9,21,21,0,0,0-2.1-1.1,10.72,10.72,0,0,0-2.7-.9,15.14,15.14,0,0,0-3-.4,6.35,6.35,0,0,0-4,1,3.29,3.29,0,0,0-1.3,2.8,2.85,2.85,0,0,0,.5,1.7,3.33,3.33,0,0,0,1.4,1.2,9.26,9.26,0,0,0,2.4.9q1.5.45,3.3.9a38.1,38.1,0,0,1,4.4,1.4,11,11,0,0,1,3.4,1.9,8.16,8.16,0,0,1,2.9,6.6,9.4,9.4,0,0,1-1,4.6,9,9,0,0,1-2.7,3.1,10.55,10.55,0,0,1-3.9,1.7,18.15,18.15,0,0,1-4.7.5,26.83,26.83,0,0,1-7.4-1.1,25.35,25.35,0,0,1-6.6-3.2l2.9-5.6a7.06,7.06,0,0,0,1.5,1.1,19.71,19.71,0,0,0,2.6,1.4,24.09,24.09,0,0,0,3.3,1.2,15.72,15.72,0,0,0,3.8.5c3.6,0,5.4-1.1,5.4-3.4a2.79,2.79,0,0,0-.6-1.8,6,6,0,0,0-1.7-1.3,17.14,17.14,0,0,0-2.7-1c-1.1-.3-2.3-.7-3.6-1a29.56,29.56,0,0,1-4.2-1.4,9,9,0,0,1-2.9-1.8,7,7,0,0,1-1.8-2.4,8.12,8.12,0,0,1-.6-3.3,10.71,10.71,0,0,1,.9-4.5,9.28,9.28,0,0,1,2.6-3.3,12,12,0,0,1,3.9-2,15,15,0,0,1,4.7-.7,19.22,19.22,0,0,1,6.5,1.1,23,23,0,0,1,5.2,2.6Z" transform="translate(-25.98 -20.21)" fill="#dc735b"/><path d="M246.9,79.9V57.8l-8.6,16.5h-3.5l-8.6-16.5V79.9h-6.5V46.5h7l9.9,19,10-19h6.9V79.9Z" transform="translate(-25.98 -20.21)" fill="#dc735b"/><path d="M274.8,80.1A15.32,15.32,0,0,1,263,74.9a18.63,18.63,0,0,1-3.3-5.4,16.76,16.76,0,0,1-1.2-6.3,17.31,17.31,0,0,1,1.2-6.4,19,19,0,0,1,3.4-5.4,16.16,16.16,0,0,1,11.7-5.1,14.51,14.51,0,0,1,6.6,1.5,16.48,16.48,0,0,1,5.1,3.9,17.91,17.91,0,0,1,3.3,5.5,16.68,16.68,0,0,1,1.2,6.2,17.73,17.73,0,0,1-1.2,6.4,17,17,0,0,1-3.4,5.4A15,15,0,0,1,274.8,80.1Zm-9.7-16.9a13.06,13.06,0,0,0,2.6,7.8,8.48,8.48,0,0,0,3.1,2.5,9.22,9.22,0,0,0,4.1.9,8.2,8.2,0,0,0,4.2-1,9.6,9.6,0,0,0,3.1-2.6,12.31,12.31,0,0,0,1.9-3.6,14.23,14.23,0,0,0,.6-4.1,12.51,12.51,0,0,0-.7-4.2,15.31,15.31,0,0,0-1.9-3.6,8.48,8.48,0,0,0-3.1-2.5,9.22,9.22,0,0,0-4.1-.9,8.2,8.2,0,0,0-4.2,1,10.71,10.71,0,0,0-3.1,2.5,13.65,13.65,0,0,0-1.9,3.6,21.27,21.27,0,0,0-.6,4.2Z" transform="translate(-25.98 -20.21)" fill="#dc735b"/><path d="M316.2,55.3a9.63,9.63,0,0,0-1.2-.9,21,21,0,0,0-2.1-1.1,10.72,10.72,0,0,0-2.7-.9,15.14,15.14,0,0,0-3-.4,6.35,6.35,0,0,0-4,1,3.29,3.29,0,0,0-1.3,2.8,2.85,2.85,0,0,0,.5,1.7,3.33,3.33,0,0,0,1.4,1.2,9.26,9.26,0,0,0,2.4.9q1.5.45,3.3.9a38.1,38.1,0,0,1,4.4,1.4,11,11,0,0,1,3.4,1.9,8.16,8.16,0,0,1,2.9,6.6,9.4,9.4,0,0,1-1,4.6,9,9,0,0,1-2.7,3.1,10.55,10.55,0,0,1-3.9,1.7,18.15,18.15,0,0,1-4.7.5,26.83,26.83,0,0,1-7.4-1.1,25.35,25.35,0,0,1-6.6-3.2l2.9-5.6a7.06,7.06,0,0,0,1.5,1.1,19.71,19.71,0,0,0,2.6,1.4,24.09,24.09,0,0,0,3.3,1.2,15.72,15.72,0,0,0,3.8.5c3.6,0,5.4-1.1,5.4-3.4a2.79,2.79,0,0,0-.6-1.8,6,6,0,0,0-1.7-1.3,17.14,17.14,0,0,0-2.7-1c-1.1-.3-2.3-.7-3.6-1a29.56,29.56,0,0,1-4.2-1.4,9,9,0,0,1-2.9-1.8,7,7,0,0,1-1.8-2.4,8.12,8.12,0,0,1-.6-3.3,10.71,10.71,0,0,1,.9-4.5,9.28,9.28,0,0,1,2.6-3.3,12,12,0,0,1,3.9-2,15,15,0,0,1,4.7-.7,19.22,19.22,0,0,1,6.5,1.1,23,23,0,0,1,5.2,2.6Z" transform="translate(-25.98 -20.21)" fill="#dc735b"/><path d="M89.9,76.9a27.08,27.08,0,0,0,4.9-12,25.56,25.56,0,0,0-1.7-12.2c3.6,5.4,5.6,11.4,4.9,17.4-.9,7.5-7.1,17.6-21.4,24.8,7.6-5.7,11.7-12.3,13.3-18M30.3,58.7C30,77.5,32.8,89.4,38.6,94a13.41,13.41,0,0,0,1.8,1.2,14.13,14.13,0,0,0,3.5,4.3c2.5,2,6.3,3.2,10.8,3.2-8.2,2-15.2,1.5-19.1-1.6-5.2-4.2-7.8-15.5-7.5-33.6.2-12.2,1.3-21.3,3.5-27.2a151,151,0,0,0-1.3,18.4M45.4,27.4a10.26,10.26,0,0,0-2,1.6,13.46,13.46,0,0,0-7,1.4c1.3-3.2,2.9-5.4,4.9-6.7a11.69,11.69,0,0,1,6.1-1.4c6.3,0,14.8,3.1,23,8.3-10.3-5-19.9-6.4-25-3.2m-8.5,5.2a11.29,11.29,0,0,1,4.7-1.4c-3.8,5.8-5.8,16.6-6,33-.2,11.6.8,20.5,3,26.8-4.3-5-6.4-15.8-6.1-32.2.1-10.5,1-18.7,2.6-24.6a13,13,0,0,1,1.8-1.6M92.7,64.7a24.09,24.09,0,0,1-2,6.7c.2-13.3-11.4-25.7-22.8-33.2-7.5-4.9-15.1-7.9-21.4-8.8h0A11.69,11.69,0,0,1,52.6,28c6.5,0,15.4,3.3,23.8,8.8a73.26,73.26,0,0,1,8.4,6.5c5.3,6.3,8.8,13.7,7.9,21.4M67.4,91.2C57.2,95.5,47.6,96.3,42,93.6c-3-5.8-4.4-15.6-4.2-29.3.2-17.2,2.4-28.1,6.6-33,6.2.4,14.4,3.5,22.4,8.7,11.5,7.6,23.3,20.3,21.7,33.5-.1.8-.3,1.6-.5,2.5-4,5.5-10.6,11-20.6,15.2M45.3,97.8c-.4-.4-.9-.8-1.3-1.2a23.18,23.18,0,0,0,6.1.7,47.5,47.5,0,0,0,18.1-4.1,53.06,53.06,0,0,0,17-10.9c-3.5,6-10.1,12.3-20.8,17.1-8.1,2-15.2,1.5-19.1-1.6M86.2,41.6A68.07,68.07,0,0,0,72.1,29.3C59.5,21,46.3,18,40,21.9Q35.5,24.75,33.1,33c-4.6,5.4-6.9,16.5-7.1,34.5-.3,18.8,2.5,30.7,8.3,35.3,2.7,2.1,6.6,3.2,11.4,3.2a47.5,47.5,0,0,0,18.1-4.1c.4-.2.9-.4,1.3-.6a57.86,57.86,0,0,0,8.3-2.8C91.4,91,99,78.9,100,70.2c1.5-10.5-5.2-20.8-13.8-28.6" transform="translate(-25.98 -20.21)" fill="#dc735b"/></svg>