<svg width="207" height="51" viewBox="0 0 207 51" fill="none" xmlns="http://www.w3.org/2000/svg">
<path fill-rule="evenodd" clip-rule="evenodd" d="M22.4147 48.1352C18.6752 49.6757 14.9903 50.5 11.768 50.5C8.9258 50.5 6.55794 49.8411 4.95605 48.5716C3.20368 47.1849 1.93616 44.7422 1.12128 41.3212C0.305165 37.8947 -0.0645027 33.4529 0.00918323 28.025C0.0822499 22.8358 0.451918 18.6232 1.14234 15.3144C1.82594 12.0381 2.82782 9.62566 4.18885 8.03142C5.12076 4.80876 6.47125 2.65422 8.30721 1.5214C10.2181 0.336101 13.1333 0.221965 16.4504 0.974529C19.7793 1.72953 23.5645 3.36833 27.2606 5.75999C30.1789 7.64201 33.1158 10.081 35.4855 12.8672C40.4665 17.3805 44.4294 23.3967 43.6523 29.6876C43.0058 34.8292 38.5482 41.819 27.9993 46.1955C26.3572 46.8812 24.7138 47.4208 23.1342 47.8145L23.1267 47.8181L23.0803 47.8395C22.9763 47.8883 22.8704 47.9374 22.7639 47.985C22.6481 48.0372 22.5317 48.0879 22.4147 48.1352ZM33.423 38.0326C31.182 39.8787 28.3745 41.5977 24.9156 43.0345C21.1762 44.5753 17.4901 45.4002 14.2677 45.4002C13.2826 45.4002 12.3599 45.3169 11.5073 45.1637L11.6342 45.2702C12.7191 46.1247 14.2634 46.6356 16.1427 46.7857C17.1 46.8623 18.1396 46.8449 19.2424 46.7332C20.2963 46.6267 21.4084 46.4341 22.5608 46.1558C27.7361 43.8618 31.2365 40.9416 33.423 38.0326ZM36.1989 32.0903C36.2447 31.8556 36.2806 31.6276 36.3041 31.4036C36.7648 27.6829 35.3264 24.0013 32.9164 20.6941C30.5083 17.3884 27.1448 14.4795 23.8042 12.3167C19.2065 9.33604 14.5656 7.58891 11.0361 7.33073C9.906 8.71593 9.02673 10.9135 8.41123 13.9866C7.78212 17.1272 7.4335 21.1558 7.36106 26.1094C7.24836 33.9631 8.0651 39.5387 9.74563 42.8148C11.3221 43.5432 13.4584 43.8044 15.939 43.5804C18.4554 43.3528 21.3075 42.6271 24.25 41.4051C29.9845 39.019 33.7685 35.868 36.0459 32.761C36.1048 32.53 36.1561 32.3072 36.1989 32.0903ZM12.9729 5.85948C16.5291 6.49516 20.7001 8.21757 24.7615 10.8436C28.0916 12.9985 31.4545 15.8808 33.9765 19.1935C36.2558 22.1861 37.8596 25.5442 38.1166 29.0434C38.4869 28.0882 38.7141 27.1644 38.82 26.3041C39.3432 22.0219 37.3494 17.7754 34.2775 14.1383C32.7332 12.7348 31.0768 11.4759 29.4204 10.4109C24.5546 7.26268 19.4412 5.40019 15.7284 5.40019C15.2238 5.40019 14.7557 5.43406 14.3253 5.49998C13.8231 5.57689 13.3723 5.69743 12.9729 5.85948ZM6.73875 8.10008C6.4019 8.30607 6.07682 8.56944 5.77712 8.87828C4.8545 12.2331 4.35727 16.898 4.27677 22.9319C4.21176 27.6475 4.47987 31.5522 5.07184 34.6321C5.509 36.9059 6.12078 38.7165 6.89665 40.0694C5.95359 36.5559 5.52386 31.8843 5.60869 26.0859C5.67371 21.3453 5.98703 17.4202 6.56661 14.2552C7.09789 11.3514 7.85642 9.0739 8.8645 7.39085C8.43662 7.44884 8.04157 7.53886 7.68119 7.66063C7.33567 7.77751 7.02111 7.92399 6.73875 8.10008ZM22.1633 4.88078C18.6697 3.1779 15.2931 2.223 12.6448 2.223C11.2125 2.223 10.0806 2.49492 9.25584 3.01616C8.29978 3.60545 7.45827 4.6342 6.766 6.14268C7.76664 5.75053 8.95428 5.57139 10.2695 5.58757C10.6286 5.2357 10.994 4.93754 11.407 4.68242C12.9469 3.71745 15.1513 3.46171 17.6876 3.7971C19.0845 3.98204 20.5923 4.34733 22.1633 4.88078ZM8.25086 43.9891L8.16541 43.9357L8.00318 43.831C7.82175 43.7114 7.64713 43.5875 7.47685 43.4593L7.47189 43.4556C5.72015 42.0692 4.44829 39.6266 3.63094 36.2053C2.81296 32.7787 2.4433 28.3369 2.52503 22.909C2.55599 20.2391 2.6755 17.8242 2.87798 15.6562C2.21419 18.8319 1.84762 22.9405 1.77703 28.0317C1.70458 33.2359 2.03276 37.447 2.75538 40.6529C3.47923 43.8658 4.59071 46.0307 6.04957 47.1919C7.12638 48.0391 8.66325 48.5502 10.5351 48.7022C11.9488 48.8173 13.5445 48.7266 15.2585 48.4276C13.3507 48.1746 11.7432 47.5761 10.5556 46.6325C9.76173 46.0017 9.07131 45.164 8.48182 44.1267C8.4038 44.0815 8.3264 44.0355 8.25086 43.9891ZM40.2163 21.5229C40.6225 23.1532 40.7593 24.8304 40.5525 26.5263C40.2881 28.6457 39.3859 31.0826 37.6608 33.5121C36.8788 36.2935 35.0348 39.423 31.8471 42.3167C38.5029 38.3421 41.4157 33.2719 41.8882 29.481C42.23 26.7714 41.5513 24.0702 40.2163 21.5229ZM121.538 19.0592C121.984 19.3569 122.281 19.5695 122.451 19.7395L124.639 15.7851C123.534 15.041 122.217 14.3819 120.709 13.8292C119.201 13.2764 117.544 13 115.76 13C114.486 13 113.275 13.1701 112.149 13.5103C111.024 13.8717 110.046 14.3607 109.197 15.0197C108.368 15.6788 107.71 16.4867 107.222 17.4859C106.733 18.4852 106.499 19.612 106.499 20.8876C106.499 21.8443 106.648 22.6735 106.945 23.3751C107.243 24.0554 107.689 24.672 108.284 25.2035C108.878 25.735 109.622 26.2027 110.514 26.5854C111.406 26.9893 112.468 27.3295 113.679 27.6697C114.677 27.9461 115.59 28.2012 116.397 28.4351C117.205 28.6902 117.905 28.9453 118.479 29.2217C119.052 29.5193 119.477 29.8383 119.796 30.2209C120.114 30.6036 120.263 31.0501 120.263 31.6029C120.263 33.3249 118.904 34.1754 116.185 34.1754C115.208 34.1754 114.252 34.0478 113.318 33.814C112.383 33.5801 111.533 33.2824 110.769 32.9423C110.004 32.6021 109.346 32.2619 108.793 31.9218C108.22 31.5816 107.837 31.3052 107.625 31.0926L105.437 35.3022C106.924 36.3439 108.581 37.1306 110.45 37.7046C112.298 38.2786 114.188 38.555 116.1 38.555C117.353 38.555 118.543 38.4274 119.668 38.1511C120.815 37.8747 121.814 37.4495 122.685 36.8542C123.555 36.2589 124.256 35.4935 124.766 34.5368C125.276 33.5801 125.531 32.432 125.531 31.0926C125.531 29.9446 125.34 28.9878 124.957 28.1799C124.575 27.372 124.023 26.713 123.322 26.1389C122.621 25.5649 121.771 25.0972 120.752 24.7145C119.732 24.3318 118.606 23.9916 117.374 23.6515C117.083 23.5738 116.802 23.4999 116.531 23.4289L116.53 23.4287L116.53 23.4286L116.529 23.4285C115.912 23.2665 115.349 23.1188 114.847 22.9711C114.125 22.7585 113.53 22.5247 113.041 22.2695C112.574 22.0144 112.213 21.7168 111.958 21.3766C111.703 21.0364 111.576 20.59 111.576 20.0797C111.576 19.1868 111.916 18.4852 112.574 17.9962C113.233 17.5072 114.252 17.2521 115.611 17.2521C116.376 17.2521 117.12 17.3371 117.863 17.5285C118.606 17.7198 119.286 17.9537 119.923 18.2301C120.561 18.5065 121.092 18.7828 121.538 19.0592ZM58.7502 38.2777V13.1692H67.9899C70.0715 13.1692 71.8769 13.4881 73.4486 14.1684C75.0204 14.8275 76.3161 15.7204 77.3782 16.8472C78.4189 17.974 79.2049 19.3135 79.7359 20.8229C80.2669 22.3324 80.5218 23.9695 80.5218 25.6916C80.5218 27.605 80.2244 29.3271 79.6509 30.8791C79.0562 32.4311 78.2278 33.7493 77.1233 34.8335C76.0188 35.9178 74.7019 36.7682 73.1726 37.3848C71.622 37.9801 69.9015 38.2777 67.9899 38.2777H58.7502ZM75.5302 25.6916C75.5302 24.501 75.3603 23.3742 75.0205 22.3749C74.6806 21.3544 74.1921 20.4828 73.5549 19.7599C72.9177 19.0371 72.1105 18.463 71.176 18.0591C70.2414 17.6551 69.1581 17.4638 67.9686 17.4638H63.6781V34.0044H67.9686C69.1793 34.0044 70.2626 33.7918 71.2184 33.3666C72.153 32.9414 72.9389 32.3673 73.5761 31.6232C74.2133 30.8791 74.6806 30.0074 75.0205 28.9869C75.3603 27.9664 75.5302 26.8609 75.5302 25.6916ZM101.784 38.2782V33.9836H89.0826V27.4567H99.7879V23.481H89.0826V17.443H101.466V13.1697H84.1335V38.2782H101.784ZM150.552 38.2782V21.6526L144.01 34.0261H141.312L134.77 21.6526V38.2782H129.821V13.1697H135.131L142.65 27.4567L150.233 13.1697H155.501V38.2782H150.552ZM171.813 38.4487C169.944 38.4487 168.266 38.0873 166.758 37.3644C165.25 36.6416 163.933 35.6849 162.85 34.4943C161.767 33.3037 160.917 31.943 160.322 30.4123C159.728 28.8815 159.43 27.3083 159.43 25.7137C159.43 24.0342 159.749 22.4396 160.386 20.9089C161.023 19.3781 161.894 18.0175 162.999 16.8481C164.103 15.6788 165.42 14.7434 166.949 14.0418C168.479 13.3402 170.135 13 171.92 13C173.746 13 175.424 13.3614 176.954 14.1055C178.462 14.8497 179.757 15.8276 180.841 17.0182C181.924 18.2301 182.752 19.5907 183.347 21.1215C183.942 22.6522 184.239 24.2042 184.239 25.7988C184.239 27.4783 183.92 29.0729 183.305 30.5824C182.689 32.1131 181.818 33.4525 180.734 34.6218C179.63 35.7911 178.313 36.7266 176.805 37.4282C175.254 38.0873 173.598 38.4487 171.813 38.4487ZM164.443 25.7137C164.443 26.798 164.613 27.8398 164.953 28.8603C165.293 29.8808 165.76 30.7737 166.397 31.5391C167.034 32.3257 167.799 32.9423 168.734 33.41C169.647 33.8777 170.688 34.1116 171.856 34.1116C173.045 34.1116 174.107 33.8777 175.021 33.3887C175.934 32.8997 176.72 32.2619 177.357 31.454C177.994 30.6462 178.462 29.7532 178.78 28.754C179.099 27.7547 179.269 26.7342 179.269 25.6925C179.269 24.6082 179.099 23.5664 178.759 22.5459C178.419 21.5254 177.931 20.6325 177.293 19.8671C176.656 19.0805 175.892 18.4639 174.957 18.0175C174.044 17.5497 173.003 17.3371 171.856 17.3371C170.666 17.3371 169.604 17.571 168.67 18.06C167.735 18.549 166.971 19.1868 166.333 19.9734C165.717 20.76 165.25 21.653 164.931 22.6522C164.592 23.6515 164.443 24.672 164.443 25.7137ZM203.334 19.7395C203.164 19.5695 202.866 19.3569 202.42 19.0592C201.974 18.7828 201.443 18.5065 200.806 18.2301C200.169 17.9537 199.489 17.7198 198.746 17.5285C198.002 17.3371 197.259 17.2521 196.494 17.2521C195.135 17.2521 194.115 17.5072 193.457 17.9962C192.798 18.4852 192.458 19.1868 192.458 20.0797C192.458 20.59 192.586 21.0364 192.841 21.3766C193.096 21.7168 193.457 22.0144 193.924 22.2695C194.412 22.5247 195.007 22.7585 195.729 22.9711C196.231 23.1189 196.795 23.2667 197.413 23.4287C197.684 23.4998 197.966 23.5737 198.257 23.6515C199.489 23.9916 200.615 24.3318 201.634 24.7145C202.654 25.0972 203.503 25.5649 204.204 26.1389C204.905 26.713 205.458 27.372 205.84 28.1799C206.222 28.9878 206.413 29.9446 206.413 31.0926C206.413 32.432 206.158 33.5801 205.649 34.5368C205.139 35.4935 204.438 36.2589 203.567 36.8542C202.696 37.4495 201.698 37.8747 200.551 38.1511C199.425 38.4274 198.236 38.555 196.983 38.555C195.071 38.555 193.18 38.2786 191.333 37.7046C189.463 37.1306 187.807 36.3439 186.32 35.3022L188.508 31.0926C188.72 31.3052 189.102 31.5816 189.676 31.9218C190.228 32.2619 190.887 32.6021 191.651 32.9423C192.416 33.2824 193.265 33.5801 194.2 33.814C195.135 34.0478 196.09 34.1754 197.068 34.1754C199.786 34.1754 201.146 33.3249 201.146 31.6029C201.146 31.0501 200.997 30.6036 200.678 30.2209C200.36 29.8383 199.935 29.5193 199.361 29.2217C198.788 28.9453 198.087 28.6902 197.28 28.4351C196.473 28.2012 195.559 27.9461 194.561 27.6697C193.35 27.3295 192.288 26.9893 191.396 26.5854C190.504 26.2027 189.761 25.735 189.166 25.2035C188.571 24.672 188.125 24.0554 187.828 23.3751C187.531 22.6735 187.382 21.8443 187.382 20.8876C187.382 19.612 187.615 18.4852 188.104 17.4859C188.593 16.4867 189.251 15.6788 190.079 15.0197C190.929 14.3607 191.906 13.8717 193.032 13.5103C194.158 13.1701 195.368 13 196.643 13C198.427 13 200.084 13.2764 201.592 13.8292C203.1 14.3819 204.417 15.041 205.521 15.7851L203.334 19.7395Z" fill="#FF6C3E"/>
</svg>
